<?xml version="1.0" encoding="utf-8"?>
<!-- Generator: Adobe Illustrator 18.1.1, SVG Export Plug-In . SVG Version: 6.00 Build 0)  -->
<svg version="1.1" id="Layer_1" xmlns="http://www.w3.org/2000/svg" xmlns:xlink="http://www.w3.org/1999/xlink" x="0px" y="0px"
	 viewBox="0 0 178.5 157.5" enable-background="new 0 0 178.5 157.5" xml:space="preserve">
<circle opacity="0.24" fill="#26A9E0" cx="89.7" cy="77.7" r="17.6"/>
<circle opacity="0.24" fill="#26A9E0" cx="89.7" cy="77.7" r="17.6"/>
<circle opacity="0.24" fill="#26A9E0" cx="89.7" cy="77.7" r="17.6"/>
<circle opacity="0.24" fill="#26A9E0" cx="89.7" cy="77.7" r="17.6"/>
<circle opacity="0.24" fill="#26A9E0" cx="89.7" cy="77.7" r="17.6"/>
<circle opacity="0.24" fill="#26A9E0" cx="89.7" cy="77.7" r="17.6"/>
<circle opacity="0.24" fill="#F6901E" cx="89.7" cy="77.7" r="17.6"/>
<circle opacity="0.24" fill="#F6901E" cx="89.7" cy="77.7" r="17.6"/>
<circle opacity="0.24" fill="#F6901E" cx="89.7" cy="77.7" r="17.6"/>
<circle opacity="0.24" fill="#F6901E" cx="89.7" cy="77.7" r="17.6"/>
<circle opacity="0.24" fill="#F6901E" cx="89.7" cy="77.7" r="17.6"/>
<circle opacity="0.24" fill="#E8127F" cx="89.7" cy="77.7" r="17.6"/>
<circle opacity="0.24" fill="#E8127F" cx="89.7" cy="77.7" r="17.6"/>
<circle opacity="0.24" fill="#E8127F" cx="89.7" cy="77.7" r="17.6"/>
<circle opacity="0.24" fill="#E8127F" cx="89.7" cy="77.7" r="17.6"/>
<circle opacity="0.24" fill="#E8127F" cx="89.7" cy="77.7" r="17.6"/>
<circle opacity="0.24" fill="#FFFFFF" cx="89.7" cy="77.7" r="68.8"/>
<circle opacity="0.24" fill="#F6901E" cx="89.7" cy="77.7" r="68.8"/>
<circle opacity="0.24" fill="#E8127F" cx="89.7" cy="77.7" r="68.8"/>
<circle opacity="0.24" fill="#26A9E0" cx="89.7" cy="77.7" r="68.8"/>
<circle opacity="0.24" fill="#F6901E" cx="89.7" cy="77.7" r="68.8"/>
<circle opacity="0.24" fill="#E8127F" cx="89.7" cy="77.7" r="68.8"/>
<circle opacity="0.24" fill="#26A9E0" cx="89.7" cy="77.7" r="68.8"/>
<circle opacity="0.24" fill="#26A9E0" cx="89.7" cy="77.7" r="4.9"/>
<circle opacity="0.24" fill="#26A9E0" cx="89.7" cy="77.7" r="4.9"/>
<circle opacity="0.24" fill="#E8127F" cx="89.7" cy="77.7" r="4.9"/>
<circle opacity="0.24" fill="#E8127F" cx="89.7" cy="77.7" r="4.9"/>
<circle opacity="0.24" fill="#E8127F" cx="89.7" cy="77.7" r="4.9"/>
<circle opacity="0.24" fill="#E8127F" cx="89.7" cy="77.7" r="4.9"/>
<circle opacity="0.24" fill="#E8127F" cx="89.7" cy="77.7" r="4.9"/>
<circle opacity="0.24" fill="#E8127F" cx="89.7" cy="77.7" r="4.9"/>
<circle opacity="0.24" fill="#E8127F" cx="89.7" cy="77.7" r="4.9"/>
</svg>
